PathFileType	4	(X/Y/Z) flx_0kg_1.trc																										
DataRate	CameraRate	NumFrames	NumMarkers	Units	OrigDataRate	OrigDataStartFrame	OrigNumFrames																					
100	100	24	9	mm	100	100	794																					
Frame#	Time	gu			centelbow			EpL			centpxt8			centijc7			ij			ts			aa			ai		
		X1	Y1	Z1	X2	Y2	Z2	X3	Y3	Z3	X4	Y4	Z4	X5	Y5	Z5	X6	Y6	Z6	X7	Y7	Z7	X8	Y8	Z8	X9	Y9	Z9  
99	0.99	-72.683	-20.259	165.754	5.458	-249.426	214.34	16.986	-235.53	241.05	-46.816	-153.158	-8.669	-46.816	31.938	-8.669	0	0	0	-141.778	19.65	53.013	-108.622	17.624	167.561	-154.341	-92.945	60.084
100	1	-72.279	-19.919	165.75	9.838	-247.527	215.107	21.152	-233.334	241.753	-46.816	-153.158	-8.669	-46.816	31.938	-8.669	0	0	0	-142.088	19.264	52.728	-108.559	17.66	167.174	-154.374	-93.337	60.18
101	1.01	-71.915	-19.703	165.725	14.068	-245.711	215.838	25.176	-231.229	242.414	-46.816	-153.158	-8.669	-46.816	31.938	-8.669	0	0	0	-142.339	19.094	52.578	-108.452	17.962	166.925	-154.307	-93.514	60.446
102	1.02	-71.886	-19.639	165.861	17.867	-244.012	216.706	28.757	-229.253	243.22	-46.816	-153.158	-8.669	-46.816	31.938	-8.669	0	0	0	-142.578	18.985	52.782	-108.387	18.342	167.042	-154.261	-93.621	61.084
103	1.03	-72.16	-19.666	166.163	21.341	-242.344	217.701	31.989	-227.32	244.164	-46.816	-153.158	-8.669	-46.816	31.938	-8.669	0	0	0	-142.849	18.807	53.155	-108.375	18.665	167.331	-154.299	-93.789	61.916
104	1.04	-72.329	-19.442	166.446	25.094	-240.291	218.591	35.48	-225.006	245.009	-46.816	-153.158	-8.669	-46.816	31.938	-8.669	0	0	0	-143.067	18.541	53.381	-108.285	18.925	167.464	-154.317	-94.035	62.64
105	1.05	-72.11	-18.894	166.587	29.489	-237.739	219.203	39.612	-222.194	245.572	-46.816	-153.158	-8.669	-46.816	31.938	-8.669	0	0	0	-143.268	18.091	53.418	-108.151	19.017	167.395	-154.334	-94.459	63.196
106	1.06	-71.74	-18.366	166.607	34.123	-235.1	219.56	44.005	-219.296	245.866	-46.816	-153.158	-8.669	-46.816	31.938	-8.669	0	0	0	-143.637	17.473	53.457	-108.195	18.947	167.328	-154.514	-95.049	63.758
107	1.07	-71.557	-18.097	166.532	38.456	-232.696	219.715	48.132	-216.64	245.944	-46.816	-153.158	-8.669	-46.816	31.938	-8.669	0	0	0	-144.123	16.956	53.597	-108.361	19.012	167.358	-154.762	-95.538	64.438
108	1.08	-71.459	-17.824	166.335	42.592	-230.266	219.675	52.087	-213.962	245.819	-46.816	-153.158	-8.669	-46.816	31.938	-8.669	0	0	0	-144.394	16.696	53.743	-108.272	19.396	167.377	-154.744	-95.767	65.176
109	1.09	-71.225	-16.975	165.961	46.923	-227.129	219.449	56.229	-210.574	245.502	-46.816	-153.158	-8.669	-46.816	31.938	-8.669	0	0	0	-144.355	16.499	53.832	-107.82	19.892	167.315	-154.411	-95.923	65.908
110	1.1	-70.962	-15.553	165.495	51.355	-223.252	219.195	60.442	-206.44	245.161	-46.816	-153.158	-8.669	-46.816	31.938	-8.669	0	0	0	-144.338	16.09	53.941	-107.373	20.203	167.262	-154.124	-96.28	66.697
111	1.11	-70.792	-14.426	165.273	55.542	-219.626	219.283	64.385	-202.562	245.169	-46.816	-153.158	-8.669	-46.816	31.938	-8.669	0	0	0	-144.602	15.415	54.103	-107.213	20.271	167.255	-154.134	-96.895	67.566
112	1.12	-70.588	-14.174	165.484	59.492	-216.93	219.829	68.083	-199.635	245.646	-46.816	-153.158	-8.669	-46.816	31.938	-8.669	0	0	0	-145.036	14.582	54.295	-107.229	20.182	167.274	-154.318	-97.661	68.467
113	1.13	-70.255	-14.397	165.792	63.438	-214.723	220.382	71.788	-197.21	246.131	-46.816	-153.158	-8.669	-46.816	31.938	-8.669	0	0	0	-145.45	13.741	54.61	-107.242	20.077	167.414	-154.471	-98.434	69.476
114	1.14	-69.86	-14.315	165.754	67.487	-212.114	220.489	75.618	-194.379	246.156	-46.816	-153.158	-8.669	-46.816	31.938	-8.669	0	0	0	-145.775	13.147	55.063	-107.183	20.25	167.691	-154.492	-98.956	70.638
115	1.15	-69.498	-13.49	165.423	71.617	-208.572	220.323	79.529	-190.597	245.892	-46.816	-153.158	-8.669	-46.816	31.938	-8.669	0	0	0	-145.984	12.942	55.475	-106.979	20.852	167.907	-154.344	-99.083	71.785
116	1.16	-69.215	-12.204	165.211	75.671	-204.416	220.407	83.352	-186.186	245.864	-46.816	-153.158	-8.669	-46.816	31.938	-8.669	0	0	0	-146.097	12.779	55.784	-106.62	21.482	167.992	-154.127	-99.161	72.831
117	1.17	-68.992	-11.201	165.285	79.436	-200.572	220.892	86.897	-182.078	246.224	-46.816	-153.158	-8.669	-46.816	31.938	-8.669	0	0	0	-146.256	12.167	56.129	-106.272	21.617	168.097	-154.072	-99.674	73.912
118	1.18	-68.738	-10.745	165.37	82.956	-197.397	221.352	90.238	-178.64	246.542	-46.816	-153.158	-8.669	-46.816	31.938	-8.669	0	0	0	-146.505	11.141	56.594	-106.013	21.312	168.316	-154.204	-100.587	75.121
119	1.19	-68.413	-10.325	165.074	86.495	-194.268	221.228	93.625	-175.256	246.271	-46.816	-153.158	-8.669	-46.816	31.938	-8.669	0	0	0	-146.616	10.27	57.021	-105.628	21.167	168.493	-154.153	-101.345	76.28
120	1.2	-68.125	-9.445	164.287	90.115	-190.531	220.431	97.095	-171.269	245.324	-46.816	-153.158	-8.669	-46.816	31.938	-8.669	0	0	0	-146.484	10.017	57.137	-104.996	21.683	168.346	-153.678	-101.495	77.109
121	1.21	-67.935	-8.267	163.429	93.659	-186.352	219.621	100.475	-166.825	244.353	-46.816	-153.158	-8.669	-46.816	31.938	-8.669	0	0	0	-146.414	10.098	56.989	-104.425	22.585	167.921	-153.114	-101.316	77.67
122	1.22	-67.68	-7.34	163.133	97.067	-182.412	219.639	103.701	-162.608	244.2	-46.816	-153.158	-8.669	-46.816	31.938	-8.669	0	0	0	-146.667	9.808	56.997	-104.202	23.125	167.65	-152.892	-101.497	78.399
